<svg xmlns="http://www.w3.org/2000/svg" viewBox="0 0 501.77 198.56"><defs><style>.cls-1{fill:#fff;}.cls-2{fill:#d62128;}.cls-3{fill:#d62027;}.cls-4{fill:#f27086;}</style></defs><g id="Layer_2" data-name="Layer 2"><g id="Layer_2-2" data-name="Layer 2"><path class="cls-1" d="M242.35,40.06a12.19,12.19,0,0,0-10,4.51Q228.71,49.08,228.7,57q0,8.31,3.5,12.57t10.15,4.26a26.66,26.66,0,0,0,5.55-.57c1.79-.39,3.65-.87,5.59-1.47v6.33a33.82,33.82,0,0,1-12,2q-9.91,0-15.22-6T220.92,57a27.76,27.76,0,0,1,2.58-12.32A18.37,18.37,0,0,1,231,36.55a22.51,22.51,0,0,1,11.46-2.81,28.35,28.35,0,0,1,12.78,2.9l-2.66,6.14a40.1,40.1,0,0,0-4.83-1.9A17.55,17.55,0,0,0,242.35,40.06Z"/><path class="cls-1" d="M303.28,56.89q0,11-5.51,17.13t-15.6,6.11q-10.21,0-15.7-6.06T261,56.83q0-11.17,5.51-17.17t15.73-6q10.06,0,15.56,6.09T303.28,56.89Zm-34.45,0q0,8.34,3.37,12.64t10,4.31q6.57,0,9.92-4.26t3.35-12.69q0-8.31-3.32-12.6T282.23,40c-4.43,0-7.76,1.43-10,4.29S268.83,51.35,268.83,56.89Z"/><path class="cls-1" d="M338.69,34.38h7.66L330.54,79.52h-7.78L307,34.38h7.59L324,62.45c.49,1.33,1,3.06,1.57,5.17s.92,3.67,1.08,4.7q.4-2.34,1.24-5.43c.55-2.06,1-3.58,1.35-4.57Z"/><path class="cls-1" d="M352.3,79.52V34.38h7.38V79.52Z"/><path class="cls-1" d="M408.3,56.52q0,11.17-6.2,17.08t-17.88,5.92H371.6V34.38h13.95q10.77,0,16.76,5.81T408.3,56.52Zm-7.78.25q0-16.22-15.16-16.21H379V73.31h5.25Q400.53,73.31,400.52,56.77Z"/><path class="cls-1" d="M414.26,65.66V59.48h15.87v6.18Z"/><path class="cls-1" d="M456.46,79.52H449.2V50.38c0-3.48.09-6.24.25-8.28-.47.5-1.05,1-1.74,1.64s-3,2.49-6.93,5.68l-3.65-4.6,13.28-10.44h6Z"/><path class="cls-1" d="M501.77,53.65q0,13.34-5.37,19.91t-16.17,6.57a24.7,24.7,0,0,1-5.9-.49V73.56a20.5,20.5,0,0,0,5.53.77q7.33,0,11-4T494.77,58h-.37a11,11,0,0,1-4.4,4,13.74,13.74,0,0,1-6,1.24q-6,0-9.41-3.74t-3.43-10.25q0-7.06,4-11.25t10.82-4.18a15,15,0,0,1,8.39,2.34A15.15,15.15,0,0,1,499.83,43,26.63,26.63,0,0,1,501.77,53.65ZM486,39.82a7,7,0,0,0-5.77,2.45,10.62,10.62,0,0,0-2,6.9,9.09,9.09,0,0,0,1.87,6.07q1.86,2.2,5.66,2.2A9.06,9.06,0,0,0,492,55.25a6.65,6.65,0,0,0,2.5-5.12A12.49,12.49,0,0,0,493.39,45a9,9,0,0,0-3-3.78A7.22,7.22,0,0,0,486,39.82Z"/><path class="cls-2" d="M238.73,155.38h-7.37v-38.8H218.08v-6.33H252v6.33H238.73Z"/><path class="cls-2" d="M266.3,137.35v18h-7.38V110.25h12.75q8.73,0,12.94,3.27t4.19,9.88q0,8.43-8.76,12l12.75,20h-8.4l-10.8-18Zm0-6.11h5.12q5.16,0,7.48-1.91a7,7,0,0,0,2.31-5.68c0-2.55-.83-4.39-2.5-5.5s-4.18-1.66-7.53-1.66H266.3Z"/><path class="cls-2" d="M327.33,155.38l-4.51-12.53H305.57l-4.42,12.53h-7.78l16.89-45.31h8l16.89,45.31Zm-6.45-18.89-4.23-12.29c-.31-.82-.74-2.12-1.28-3.89s-.92-3.06-1.13-3.89a68.1,68.1,0,0,1-2.44,8.31l-4.07,11.76Z"/><path class="cls-2" d="M360.33,115.93a12.15,12.15,0,0,0-10,4.51q-3.65,4.5-3.64,12.44,0,8.3,3.5,12.56t10.14,4.26a26.75,26.75,0,0,0,5.56-.57q2.69-.57,5.58-1.47V154a33.81,33.81,0,0,1-12,2q-9.9,0-15.21-6t-5.31-17.18a27.87,27.87,0,0,1,2.57-12.32,18.41,18.41,0,0,1,7.46-8.09,22.57,22.57,0,0,1,11.45-2.81,28.48,28.48,0,0,1,12.78,2.9l-2.65,6.15a39.76,39.76,0,0,0-4.83-1.9A17.32,17.32,0,0,0,360.33,115.93Z"/><path class="cls-2" d="M415.65,155.38H407.1L392.93,135l-4.36,3.55v16.88H381.2V110.25h7.37V131.8q3-3.7,6-7.13l12.2-14.42h8.39Q403.36,124.14,398.24,130Z"/><path class="cls-2" d="M447.14,155.38H421.61V110.25h25.53v6.24H429v12.28h17V135H429v14.17h18.16Z"/><path class="cls-2" d="M464.27,137.35v18h-7.38V110.25h12.75q8.73,0,12.93,3.27t4.2,9.88q0,8.43-8.76,12l12.74,20h-8.39l-10.81-18Zm0-6.11h5.12q5.16,0,7.47-1.91a6.93,6.93,0,0,0,2.32-5.68c0-2.55-.84-4.39-2.5-5.5s-4.18-1.66-7.53-1.66h-4.88Z"/><path class="cls-3" d="M169.39,153.8c3.54,4.51,4.1,10.61.07,14.68a10.37,10.37,0,0,1-14.68.07s-12.38-15.84-28.36-11-16.29,23.47-16.3,30.59a10.38,10.38,0,0,1-20.76.11S91,164,75.76,159.46s-22.81.36-31.56,9.35a10.38,10.38,0,0,1-14.63-14.73s15.94-12.25,11.24-28.27-23.34-16.47-30.46-16.54a10.38,10.38,0,1,1,.06-20.76s22.37,5.15,30.44-16.45c4.45-12.79-5.43-23.49-11.2-27.64-4.65-3.35-4-10.63,0-14.68a10.39,10.39,0,0,1,14.68,0s12.3,15.91,28.31,11.15S89,17.5,89.09,10.38a10.38,10.38,0,1,1,20.76,0s-1.74,24.27,13.46,28.84S146.12,39,154.91,30a10.38,10.38,0,0,1,14.56,14.8S153.47,57,158.09,73s23.26,16.59,30.38,16.7a10.38,10.38,0,1,1-.17,20.76s-22.48-2.94-29.16,13.5S167.78,151.76,169.39,153.8Z"/><circle class="cls-4" cx="82.81" cy="83.32" r="16.13"/><circle class="cls-4" cx="97.52" cy="95.95" r="1.32"/><circle class="cls-4" cx="103.81" cy="72.53" r="2.2"/><circle class="cls-4" cx="120.93" cy="92.57" r="8.03"/><circle class="cls-4" cx="88.17" cy="54.67" r="8.03"/><circle class="cls-4" cx="56.55" cy="101.94" r="8.03"/><circle class="cls-4" cx="106.02" cy="133.27" r="15.42"/></g></g></svg>