<svg id="Layer_2" data-name="Layer 2" xmlns="http://www.w3.org/2000/svg" viewBox="0 0 245.87 245.62"><defs><style>.cls-1{fill:#d62027;}.cls-2{fill:#ee3145;}</style></defs><path class="cls-1" d="M306,349.13c4.38,5.58,5.08,13.12.09,18.16a12.84,12.84,0,0,1-18.16.09s-15.31-19.61-35.08-13.62-20.15,29-20.16,37.83a12.84,12.84,0,1,1-25.68.13s2-30-16.82-35.59-28.22.45-39,11.56a12.84,12.84,0,1,1-18.1-18.22s19.73-15.15,13.9-35S118.1,294.12,109.29,294a12.84,12.84,0,0,1,.08-25.68S137,274.73,147,248c5.51-15.82-6.71-29.06-13.84-34.19-5.76-4.15-5-13.15,0-18.16a12.83,12.83,0,0,1,18.16,0s15.21,19.67,35,13.79,20.29-28.93,20.35-37.74a12.84,12.84,0,0,1,25.68,0s-2.16,30,16.64,35.67,28.22-.3,39.1-11.37a12.84,12.84,0,0,1,18,18.31s-19.8,15.06-14.08,34.9,28.77,20.52,37.58,20.65a12.84,12.84,0,1,1-.21,25.68s-27.81-3.63-36.07,16.7S304,346.6,306,349.13Z" transform="translate(-96.49 -158.88)"/><circle class="cls-2" cx="102.43" cy="103.07" r="19.95"/><circle class="cls-2" cx="120.63" cy="118.68" r="1.63"/><circle class="cls-2" cx="128.41" cy="89.71" r="2.73"/><circle class="cls-2" cx="149.59" cy="114.51" r="9.94"/><circle class="cls-2" cx="109.06" cy="67.62" r="9.94"/><circle class="cls-2" cx="69.95" cy="126.1" r="9.94"/><circle class="cls-2" cx="131.14" cy="164.85" r="19.07"/></svg>