<svg xmlns="http://www.w3.org/2000/svg" viewBox="0 0 198.77 198.56"><defs><style>.cls-1{fill:#d62027;}.cls-2{fill:#f27086;}</style></defs><g id="Layer_2" data-name="Layer 2"><g id="Layer_2-2" data-name="Layer 2"><path class="cls-1" d="M169.39,153.8c3.54,4.51,4.1,10.61.07,14.68a10.37,10.37,0,0,1-14.68.07s-12.38-15.84-28.36-11-16.29,23.47-16.3,30.59a10.38,10.38,0,0,1-20.76.11S91,164,75.76,159.46s-22.81.36-31.56,9.35a10.38,10.38,0,0,1-14.63-14.73s15.94-12.25,11.24-28.27-23.34-16.47-30.46-16.54a10.38,10.38,0,1,1,.06-20.76s22.37,5.15,30.44-16.45c4.45-12.79-5.43-23.49-11.2-27.64-4.65-3.35-4-10.63,0-14.68a10.39,10.39,0,0,1,14.68,0s12.3,15.91,28.31,11.15S89,17.5,89.09,10.38a10.38,10.38,0,1,1,20.76,0s-1.74,24.27,13.46,28.84S146.12,39,154.91,30a10.38,10.38,0,0,1,14.56,14.8S153.47,57,158.09,73s23.26,16.59,30.38,16.7a10.38,10.38,0,1,1-.17,20.76s-22.48-2.94-29.16,13.5S167.78,151.76,169.39,153.8Z"/><circle class="cls-2" cx="82.81" cy="83.32" r="16.13"/><circle class="cls-2" cx="97.52" cy="95.95" r="1.32"/><circle class="cls-2" cx="103.81" cy="72.53" r="2.2"/><circle class="cls-2" cx="120.93" cy="92.57" r="8.03"/><circle class="cls-2" cx="88.17" cy="54.67" r="8.03"/><circle class="cls-2" cx="56.55" cy="101.94" r="8.03"/><circle class="cls-2" cx="106.02" cy="133.27" r="15.42"/></g></g></svg>